<svg width="772" height="564" viewBox="0 0 772 564" fill="none" xmlns="http://www.w3.org/2000/svg">
<g clip-path="url(#clip0)">
<path d="M76.2368 198.384H77.0566C85.9674 198.374 94.5105 194.829 100.811 188.528C107.112 182.227 110.657 173.684 110.667 164.773V153.297H210.677V151.657H109.027V164.773C109.017 173.108 105.757 181.109 99.9403 187.078C94.1232 193.046 86.2076 196.51 77.8763 196.734V151.657H54.1033C50.8432 151.653 47.7177 150.357 45.4125 148.051C43.1073 145.746 41.8106 142.621 41.8069 139.36V13.936C41.8106 10.6759 43.1073 7.55042 45.4125 5.24517C47.7177 2.93993 50.8432 1.64322 54.1033 1.63953H367.252C370.512 1.64322 373.637 2.93993 375.942 5.24517C378.248 7.55042 379.544 10.6759 379.548 13.936V104.93H381.188V13.936C381.183 10.2413 379.714 6.69898 377.101 4.08637C374.489 1.47375 370.946 0.00415939 367.252 0H54.1033C50.4085 0.00415939 46.8663 1.47375 44.2537 4.08637C41.6411 6.69898 40.1715 10.2413 40.1674 13.936V139.36C40.1715 143.055 41.6411 146.598 44.2537 149.21C46.8663 151.823 50.4085 153.292 54.1033 153.297H76.2368V198.384Z" fill="#CCCCCC"/>
<path d="M105.765 41.4064C105.868 38.7616 106.991 36.2593 108.898 34.4239C110.805 32.5885 113.349 31.5626 115.996 31.561H305.36C308.078 31.561 310.684 32.6406 312.606 34.5623C314.528 36.484 315.607 39.0904 315.607 41.8081C315.607 44.5258 314.528 47.1322 312.606 49.0539C310.684 50.9756 308.078 52.0552 305.36 52.0552H115.996C113.279 52.0515 110.675 50.9707 108.754 49.0498C106.833 47.1289 105.753 44.5247 105.749 41.8081C105.746 41.674 105.752 41.5399 105.765 41.4064Z" fill="#CCCCCC"/>
<path d="M105.765 75.8367C105.868 73.1919 106.991 70.6896 108.898 68.8542C110.805 67.0188 113.349 65.9929 115.996 65.9913H305.36C308.078 65.9913 310.684 67.0709 312.606 68.9926C314.528 70.9143 315.607 73.5207 315.607 76.2384C315.607 78.9561 314.528 81.5625 312.606 83.4842C310.684 85.4059 308.078 86.4855 305.36 86.4855H115.996C113.279 86.4818 110.675 85.401 108.754 83.4801C106.833 81.5592 105.753 78.955 105.749 76.2384C105.746 76.1043 105.752 75.9702 105.765 75.8367Z" fill="#CCCCCC"/>
<path d="M105.766 110.267C105.869 107.622 106.992 105.12 108.899 103.284C110.806 101.449 113.35 100.423 115.997 100.422H305.361C306.863 100.422 308.347 100.752 309.707 101.39C311.067 102.027 312.27 102.956 313.231 104.11C313.652 104.621 314.026 105.17 314.346 105.75H223.795C220.535 105.754 217.41 107.051 215.105 109.356C212.799 111.661 211.503 114.786 211.499 118.047V120.916H115.997C113.28 120.912 110.676 119.831 108.755 117.91C106.834 115.989 105.753 113.385 105.75 110.669C105.747 110.534 105.752 110.4 105.766 110.267Z" fill="#CCCCCC"/>
<path d="M751.901 561.299C751.455 561.665 751.009 562.015 750.552 562.36H637.914C637.075 562.015 636.24 561.661 635.408 561.299C623.517 556.124 612.449 549.233 602.557 540.846C595.989 535.281 589.947 529.536 585.566 524.152C579.455 516.639 573.827 508.451 571.209 499.122C568.597 489.793 569.377 479.1 575.213 471.363C577.02 468.984 579.241 466.949 581.77 465.358C582.19 465.093 582.614 464.838 583.049 464.599C590.309 460.691 598.778 459.673 606.757 461.748C618.04 464.663 627.417 472.802 634.107 482.349C640.797 491.891 645.14 502.85 649.42 513.687C653.763 494.344 666.915 477.018 684.681 468.209C702.442 459.401 724.509 459.507 741.892 469.048C747.362 472.069 752.303 475.96 756.52 480.57C756.94 481.022 757.349 481.484 757.752 481.951C766.231 491.768 771.536 504.342 771.971 517.308C772.167 525.68 770.463 533.988 766.986 541.607C763.51 549.227 758.353 555.959 751.901 561.299Z" fill="#F2F2F2"/>
<path d="M642.416 562.36H640.823C640.802 562.005 640.775 561.654 640.744 561.299C640.187 554.353 639.021 547.47 637.26 540.729C633.221 525.338 626.32 510.845 616.919 498.007C607.545 485.128 595.728 474.22 582.141 465.905C582.042 465.848 581.957 465.769 581.892 465.674C581.828 465.58 581.786 465.471 581.77 465.358C581.744 465.21 581.76 465.057 581.818 464.918C581.875 464.779 581.971 464.659 582.094 464.572C582.217 464.485 582.362 464.435 582.512 464.428C582.663 464.42 582.812 464.456 582.943 464.53C582.98 464.551 583.015 464.574 583.049 464.599C590.747 469.291 597.892 474.833 604.351 481.122C615.905 492.393 625.221 505.748 631.807 520.483C637.618 533.388 641.178 547.193 642.331 561.299C642.363 561.654 642.39 562.01 642.416 562.36Z" fill="white"/>
<path d="M757.752 481.951C757.741 481.957 757.728 481.96 757.715 481.961C756.553 482.174 755.384 482.397 754.227 482.636C744.725 484.587 735.424 487.411 726.441 491.073C717.483 494.729 708.865 499.171 700.69 504.347C692.504 509.52 684.785 515.397 677.62 521.911C670.454 528.416 663.882 535.545 657.979 543.214C653.568 548.96 649.556 555.002 645.974 561.299C645.773 561.649 645.576 562.005 645.379 562.36H643.558C643.749 562.005 643.946 561.649 644.148 561.299C648.482 553.584 653.451 546.243 659.004 539.354C665.145 531.729 671.952 524.666 679.345 518.248C686.691 511.866 694.575 506.131 702.909 501.108C711.278 496.065 720.077 491.772 729.203 488.28C738.058 484.894 747.201 482.314 756.521 480.57C756.781 480.523 757.036 480.475 757.296 480.427C758.289 480.246 758.713 481.744 757.752 481.951Z" fill="white"/>
<path d="M726.078 537.378C714.986 535.853 703.722 536.106 692.71 538.131C681.73 540.138 671.13 543.844 661.291 549.115C655.762 552.086 650.514 555.554 645.613 559.474C644.812 560.114 645.945 561.234 646.739 560.601C655.34 553.758 664.982 548.338 675.298 544.547C685.532 540.761 696.289 538.579 707.19 538.077C713.357 537.793 719.538 538.074 725.655 538.914C725.858 538.963 726.073 538.933 726.254 538.829C726.436 538.726 726.572 538.558 726.635 538.358C726.689 538.154 726.662 537.937 726.558 537.754C726.453 537.57 726.281 537.435 726.078 537.378H726.078Z" fill="white"/>
<path d="M224.615 105.75H537.763C541.458 105.755 544.999 107.225 547.612 109.838C550.224 112.45 551.694 115.992 551.699 119.686V245.11C551.694 248.805 550.224 252.347 547.612 254.959C544.999 257.571 541.458 259.041 537.763 259.047H515.63V304.134H514.81C505.899 304.124 497.356 300.58 491.054 294.279C484.753 287.978 481.209 279.434 481.2 270.523V259.047H224.615C220.921 259.041 217.379 257.571 214.767 254.959C212.154 252.347 210.684 248.805 210.679 245.11V119.686C210.684 115.992 212.154 112.45 214.767 109.838C217.379 107.225 220.921 105.755 224.615 105.75ZM212.319 245.11C212.323 248.37 213.619 251.496 215.925 253.801C218.23 256.106 221.355 257.403 224.615 257.407H482.839V270.523C482.851 278.857 486.111 286.859 491.928 292.827C497.745 298.795 505.659 302.26 513.99 302.486V257.407H537.763C541.023 257.403 544.149 256.106 546.454 253.801C548.759 251.496 550.056 248.37 550.06 245.11V119.686C550.056 116.426 548.759 113.301 546.454 110.995C544.149 108.69 541.023 107.394 537.763 107.39H224.615C221.355 107.394 218.23 108.69 215.925 110.995C213.619 113.301 212.323 116.426 212.319 119.686V245.11Z" fill="#3F3D56"/>
<path d="M286.507 137.311H475.871C478.518 137.313 481.062 138.339 482.969 140.174C484.876 142.009 485.999 144.512 486.102 147.156C486.116 147.29 486.121 147.424 486.118 147.558C486.115 150.275 485.034 152.879 483.113 154.8C481.192 156.721 478.588 157.801 475.871 157.805H286.507C283.789 157.805 281.183 156.726 279.261 154.804C277.34 152.882 276.26 150.276 276.26 147.558C276.26 144.84 277.34 142.234 279.261 140.312C281.183 138.391 283.789 137.311 286.507 137.311Z" fill="#3420FF"/>
<path d="M286.507 171.741H475.871C478.518 171.743 481.062 172.769 482.969 174.604C484.876 176.44 485.999 178.942 486.102 181.587C486.116 181.72 486.121 181.854 486.118 181.988C486.115 184.705 485.034 187.309 483.113 189.23C481.192 191.151 478.588 192.232 475.871 192.236H286.507C283.789 192.236 281.183 191.156 279.261 189.234C277.34 187.313 276.26 184.706 276.26 181.988C276.26 179.271 277.34 176.664 279.261 174.743C281.183 172.821 283.789 171.741 286.507 171.741Z" fill="#3420FF"/>
<path d="M286.507 206.172H475.871C478.518 206.173 481.062 207.199 482.969 209.034C484.876 210.87 485.999 213.372 486.102 216.017C486.116 216.15 486.121 216.284 486.118 216.419C486.115 219.135 485.034 221.739 483.113 223.66C481.192 225.581 478.588 226.662 475.871 226.666H286.507C283.789 226.666 281.183 225.586 279.261 223.664C277.34 221.743 276.26 219.136 276.26 216.419C276.26 213.701 277.34 211.095 279.261 209.173C281.183 207.251 283.789 206.172 286.507 206.172Z" fill="#3420FF"/>
<path d="M587.778 387.52C588.147 387.52 588.516 387.497 588.882 387.451C590.143 387.296 591.357 386.877 592.445 386.22C593.533 385.563 594.47 384.684 595.195 383.64C595.919 382.596 596.415 381.411 596.649 380.162C596.883 378.913 596.851 377.628 596.555 376.393C596.484 376.106 596.399 375.823 596.3 375.544L623.651 340.529C624.855 338.975 625.526 337.075 625.565 335.109C625.603 333.144 625.007 331.219 623.864 329.619L614.284 316.313L601.762 325.973L606.792 334.616L586.87 369.537C586.469 369.574 586.072 369.638 585.68 369.73C583.534 370.246 581.651 371.531 580.389 373.342C579.126 375.153 578.572 377.364 578.83 379.557C579.089 381.749 580.142 383.771 581.791 385.238C583.44 386.706 585.57 387.518 587.778 387.52L587.778 387.52Z" fill="#A0616A"/>
<path d="M540.446 553.44L530.395 553.439L525.615 514.674L540.447 514.675L540.446 553.44Z" fill="#A0616A"/>
<path d="M511.012 562.77L542.598 562.772L542.598 550.568L523.216 550.567C521.613 550.567 520.026 550.883 518.546 551.496C517.065 552.109 515.72 553.008 514.586 554.141C513.453 555.274 512.554 556.62 511.941 558.1C511.328 559.581 511.012 561.168 511.012 562.77Z" fill="#2F2E41"/>
<path d="M623.241 553.44L613.19 553.439L608.409 514.674L623.242 514.675L623.241 553.44Z" fill="#A0616A"/>
<path d="M593.809 562.77L625.395 562.772L625.395 550.568L606.013 550.567C604.41 550.567 602.823 550.883 601.343 551.496C599.862 552.109 598.517 553.008 597.383 554.141C596.25 555.274 595.351 556.62 594.738 558.1C594.124 559.581 593.809 561.168 593.809 562.77Z" fill="#2F2E41"/>
<path d="M617.072 318.2L594.509 326.775L589 311.472C588.268 309.44 588.279 307.215 589.029 305.19C589.779 303.165 591.221 301.47 593.1 300.406C595.001 299.329 597.224 298.967 599.368 299.385C601.512 299.804 603.436 300.975 604.792 302.688L617.072 318.2Z" fill="#3420FF"/>
<path d="M542.231 522.147C543.132 522.146 544.007 521.845 544.718 521.292C545.429 520.739 545.937 519.965 546.16 519.093C557.411 476.046 568.836 454.469 581.087 429.52C581.393 428.898 581.89 428.389 582.505 428.069C583.12 427.749 583.821 427.633 584.506 427.739C585.192 427.844 585.825 428.166 586.315 428.657C586.805 429.147 587.126 429.782 587.23 430.467L602.416 518.222C602.567 519.201 603.07 520.092 603.829 520.728C604.588 521.364 605.553 521.703 606.543 521.68L629.088 521.131C629.635 521.12 630.174 520.998 630.672 520.772C631.171 520.546 631.618 520.222 631.988 519.819C632.378 519.432 632.677 518.962 632.862 518.445C633.047 517.928 633.113 517.375 633.057 516.829C622.846 449.489 614.806 388.534 599.346 369.939C598.917 369.533 598.426 369.199 597.891 368.95L598.36 368.878C598.494 368.857 598.851 368.802 598.855 368.443L598.86 368.096L598.507 368.03C597.944 368.01 597.382 368.094 596.85 368.279L561.564 373.709C560.586 373.86 559.697 374.361 559.061 375.119C558.426 375.876 558.088 376.839 558.109 377.828C556.191 386.802 553.251 400.348 552.988 401.015C534.162 436.808 526.856 464.992 519.263 513.12C519.106 514.141 519.341 515.183 519.921 516.038C520.5 516.892 521.382 517.496 522.388 517.727L541.312 522.043C541.613 522.112 541.922 522.147 542.231 522.147Z" fill="#2F2E41"/>
<path d="M562.032 379.578C562.349 379.578 562.665 379.541 562.973 379.467L597.713 371.203C598.245 371.079 598.746 370.847 599.186 370.521C599.625 370.196 599.993 369.784 600.267 369.31C600.549 368.821 600.73 368.279 600.798 367.718C600.866 367.157 600.821 366.588 600.664 366.045C596.917 353.057 601.83 336.957 607.696 321.494C608.442 316.972 607.711 312.33 605.612 308.256C603.512 304.182 600.155 300.894 596.04 298.878L595.945 298.832L577.706 299.753C574.711 300.538 571.933 301.992 569.581 304.005C567.229 306.019 565.363 308.539 564.125 311.377C557.095 327.83 555.082 348.943 557.972 375.921C558.078 376.924 558.552 377.853 559.301 378.528C560.051 379.203 561.024 379.577 562.032 379.578L562.032 379.578Z" fill="#3420FF"/>
<path d="M557.359 342.021C559.213 342.025 561.023 341.45 562.535 340.376L575.99 330.785L566.39 318.216L557.724 323.206L522.899 303.115C522.864 302.715 522.802 302.317 522.711 301.925C522.303 300.189 521.389 298.613 520.086 297.396C518.782 296.179 517.146 295.376 515.386 295.089C513.626 294.802 511.82 295.043 510.197 295.782C508.574 296.521 507.206 297.725 506.267 299.241C505.328 300.757 504.86 302.518 504.921 304.3C504.983 306.083 505.572 307.807 506.613 309.254C507.655 310.702 509.102 311.809 510.772 312.434C512.443 313.059 514.261 313.175 515.997 312.767C516.284 312.698 516.568 312.614 516.846 312.516L551.829 340.115C553.406 341.353 555.354 342.025 557.359 342.021Z" fill="#A0616A"/>
<path d="M580.26 334.699L560.3 321.126L569.68 307.84C570.926 306.076 572.755 304.809 574.844 304.263C576.934 303.717 579.149 303.927 581.098 304.856C583.07 305.796 584.641 307.41 585.527 309.407C586.414 311.404 586.556 313.652 585.93 315.745L580.26 334.699Z" fill="#3420FF"/>
<path d="M589.86 292.02C578.74 292.02 569.726 283.005 569.726 271.885C569.726 260.765 578.74 251.751 589.86 251.751C600.98 251.751 609.994 260.765 609.994 271.885C609.994 283.005 600.98 292.02 589.86 292.02Z" fill="#A0616A"/>
<path d="M588.015 292.485C591.037 292.472 593.368 289.29 593.232 286.271C593.097 283.252 591.069 280.596 588.627 278.817C586.184 277.038 583.319 275.955 580.595 274.647C577.87 273.339 575.17 271.707 573.488 269.197C572.472 267.554 571.865 265.69 571.719 263.764C571.573 261.837 571.892 259.904 572.649 258.126C574.214 254.571 576.902 251.627 580.3 249.745C585.348 246.79 591.324 245.845 597.037 247.099C602.75 248.352 607.781 251.712 611.129 256.508L614.578 265.901C618.093 270.128 618.651 276.405 616.49 281.46C614.329 286.515 609.729 290.318 604.537 292.126C599.27 293.819 593.631 293.988 588.272 292.614" fill="#2F2E41"/>
<path d="M609.769 262.339C611.148 260.212 613.03 258.457 615.247 257.229C617.465 256.001 619.951 255.337 622.485 255.297C625.02 255.256 627.526 255.84 629.781 256.996C632.037 258.152 633.974 259.846 635.421 261.927C637.843 265.412 638.723 269.707 640.388 273.61C643.404 280.599 648.89 286.233 655.797 289.433C649.749 290.497 643.724 287.42 638.889 283.635C634.054 279.85 629.802 275.23 624.387 272.334C620.128 270.064 615.342 268.965 610.519 269.149" fill="#2F2E41"/>
<path d="M440.299 564H752.628C752.845 564 753.053 563.914 753.207 563.76C753.361 563.606 753.447 563.398 753.447 563.18C753.447 562.963 753.361 562.754 753.207 562.601C753.053 562.447 752.845 562.36 752.628 562.36H440.299C440.082 562.36 439.873 562.447 439.719 562.601C439.566 562.754 439.479 562.963 439.479 563.18C439.479 563.398 439.566 563.606 439.719 563.76C439.873 563.914 440.082 564 440.299 564Z" fill="#3F3D56"/>
<path d="M48.3666 300.035C21.6549 300.035 0.000732422 278.381 0.000732422 251.669C0.000732422 224.957 21.6549 203.302 48.3666 203.302C75.0783 203.302 96.7324 224.957 96.7324 251.669C96.7324 278.381 75.0783 300.035 48.3666 300.035Z" fill="#E6E6E6"/>
<path d="M43.7535 286.142C45.7234 286.087 48.1749 286.018 50.0625 284.639C50.6248 284.211 51.0868 283.666 51.4161 283.041C51.7455 282.416 51.9342 281.727 51.969 281.021C52.0032 280.52 51.9208 280.017 51.7286 279.553C51.5363 279.089 51.2393 278.675 50.8607 278.344C50.2981 277.924 49.6392 277.652 48.9442 277.552C48.2493 277.452 47.5403 277.527 46.882 277.772L48.4902 266.019L47.3097 265.858L45.4192 279.674L46.4049 279.222C47.5478 278.697 49.1166 278.431 50.0916 279.254C50.331 279.47 50.5174 279.737 50.6365 280.036C50.7556 280.335 50.8041 280.658 50.7783 280.979C50.7494 281.504 50.6078 282.017 50.363 282.482C50.1182 282.948 49.776 283.355 49.3597 283.677C47.8908 284.75 45.9367 284.889 43.7202 284.951L43.7535 286.142Z" fill="#3F3D56"/>
<path d="M54.3287 267.033H60.7461V268.224H54.3287V267.033Z" fill="#3F3D56"/>
<path d="M34.0709 267.033H40.4883V268.224H34.0709V267.033Z" fill="#3F3D56"/>
<path d="M71.8942 250.579C77.062 249.99 81.0644 245.038 81.504 240.014C82.027 234.037 78.5462 228.361 73.771 225.007C68.7771 221.499 62.5553 220.035 56.5353 219.712C44.7919 219.128 33.2508 222.932 24.1564 230.385C19.6456 234.131 15.4327 238.903 13.8361 244.668C12.4494 249.674 13.5778 255.345 17.6041 258.852C18.6001 259.711 19.7634 260.354 21.0206 260.741C22.2777 261.128 23.6014 261.251 24.9082 261.101C28.0324 260.776 30.9149 259.133 33.41 257.319C38.2637 253.79 42.2483 248.874 48.1616 247.03C52.4974 245.678 58.1241 246.868 60.7737 250.789C61.3749 251.686 61.7645 252.709 61.9131 253.779C61.9678 254.007 61.9339 254.248 61.818 254.452C61.7021 254.656 61.513 254.808 61.289 254.878C61.0605 254.94 60.8169 254.909 60.6111 254.792C60.4053 254.675 60.2539 254.482 60.1897 254.254C59.4941 249.315 53.4216 247.473 49.1604 248.6C42.9474 250.245 38.7767 255.789 33.6792 259.311C31.0406 261.279 27.9319 262.52 24.6638 262.91C21.83 263.132 19.0179 262.268 16.7977 260.493C12.4429 257.055 10.7775 251.14 11.7404 245.815C12.8555 239.649 17.0059 234.364 21.5598 230.272C30.7918 222.064 42.7773 217.637 55.1278 217.871C61.4272 218.016 68.0001 219.316 73.427 222.646C78.6911 225.875 82.7598 231.279 83.2916 237.559C83.7597 243.087 80.7937 248.87 75.7024 251.291C74.502 251.86 73.2147 252.223 71.8941 252.366C70.7533 252.496 70.7626 250.708 71.8941 250.579L71.8942 250.579Z" fill="#3F3D56"/>
</g>
<defs>
<clipPath id="clip0">
<rect width="772" height="564" fill="white" transform="matrix(-1 0 0 1 772 0)"/>
</clipPath>
</defs>
</svg>
