<svg width="95" height="106" viewBox="0 0 95 106" fill="none" xmlns="http://www.w3.org/2000/svg">
<path fill-rule="evenodd" clip-rule="evenodd" d="M50.8928 0.249695L91.5221 12.1569C92.5226 12.4848 93.3945 13.1096 94.0175 13.9448C94.6406 14.7802 94.9838 15.7849 94.9999 16.82V61.2018C94.9999 67.1972 92.5402 73.2756 87.7053 79.3542C84.058 83.934 78.8837 88.5969 72.5221 93.1767C65.6662 97.9494 58.4008 102.129 50.808 105.667C50.4042 105.83 49.9721 105.914 49.5356 105.917H48.6874L48.1784 105.75C47.3303 105.334 31.808 97.5898 25.6159 96.091C17.1794 94.0204 8.78313 99.1008 4.03313 101.975C1.90643 103.262 0.510674 104.106 0.16961 103.668C-0.933174 102.253 4.58025 95.758 6.44622 93.593C7.47137 92.3527 8.37591 91.3559 9.14837 90.5043C11.1249 88.3259 12.2382 87.0988 12.299 85.183C12.3625 83.1889 11.4758 82.2206 9.99456 80.6032C9.49651 80.0595 8.93133 79.4423 8.31243 78.6882C5.85247 75.6904 3.39275 70.5278 3.9865 61.2851V16.82C4.00262 15.7849 4.34588 14.7802 4.96893 13.9448C5.59173 13.1096 6.4638 12.4848 7.46429 12.1569L48.0937 0.249695C49.0095 0.00140381 49.9767 0.00140381 50.8928 0.249695ZM49.7053 14.9882L80.1562 23.9811C80.6125 24.1198 81.0131 24.395 81.3019 24.7682C81.591 25.1415 81.7538 25.5942 81.7678 26.0627V58.9536C81.7678 63.2004 79.9865 67.6135 76.509 71.9433C73.3837 75.7324 69.7284 79.0683 65.6518 81.8522C60.7267 85.2912 55.5043 88.3002 50.0446 90.8452C49.7524 90.9753 49.4318 91.0324 49.1115 91.0117C48.7907 91.0444 48.4672 90.9868 48.1786 90.8452C42.7077 88.3207 37.4836 85.3107 32.5715 81.8522C28.4704 79.0676 24.787 75.7321 21.6293 71.9433C18.1518 67.6135 16.3705 63.2004 16.3705 58.9536V26.0627C16.3845 25.5942 16.5473 25.1415 16.8364 24.7682C17.1254 24.395 17.5258 24.1198 17.9821 23.9811L48.433 14.9882H49.7053Z" fill="#3420FF"/>
</svg>
