<svg width="23" height="23" viewBox="0 0 23 23" fill="none" xmlns="http://www.w3.org/2000/svg">
<path d="M4.72098 11.8439L21.5285 11.8194M4.72098 11.8439L2.05716 19.8907C2.01766 19.9977 2.00964 20.1138 2.03403 20.2253C2.05843 20.3367 2.11422 20.4388 2.19478 20.5193C2.27533 20.5999 2.37727 20.6556 2.48847 20.6797C2.59967 20.7039 2.71546 20.6955 2.82207 20.6556L21.5285 11.8194M4.72098 11.8439L2.03745 3.80414C1.9977 3.69724 1.98938 3.58115 2.01351 3.46964C2.03763 3.35814 2.09317 3.25592 2.17353 3.17513C2.25389 3.09434 2.35569 3.03837 2.46683 3.01388C2.57797 2.9894 2.69378 2.99742 2.80049 3.037L21.5285 11.8194" stroke="white" stroke-width="2" stroke-linecap="round" stroke-linejoin="round"/>
</svg>
