<svg width="640" height="512" viewBox="0 0 640 512" fill="none" xmlns="http://www.w3.org/2000/svg">
<path d="M604.52 241.4C550.29 135.59 442.93 64 320 64C197.07 64 89.68 135.64 35.48 241.41C33.1924 245.935 32.0005 250.935 32.0005 256.005C32.0005 261.075 33.1924 266.075 35.48 270.6C89.71 376.41 197.07 448 320 448C442.93 448 550.32 376.36 604.52 270.59C606.808 266.065 607.999 261.065 607.999 255.995C607.999 250.925 606.808 245.925 604.52 241.4V241.4ZM320 400C291.519 400 263.679 391.555 239.998 375.732C216.317 359.909 197.86 337.419 186.961 311.106C176.062 284.794 173.211 255.84 178.767 227.907C184.323 199.974 198.038 174.315 218.177 154.177C238.315 134.038 263.974 120.323 291.907 114.767C319.84 109.211 348.794 112.062 375.106 122.961C401.419 133.86 423.909 152.317 439.732 175.998C455.555 199.679 464 227.519 464 256C464.009 274.913 460.291 293.642 453.057 311.117C445.824 328.592 435.217 344.47 421.844 357.844C408.47 371.217 392.592 381.824 375.117 389.057C357.642 396.291 338.913 400.009 320 400V400ZM320 160C311.431 160.12 302.918 161.395 294.69 163.79C301.472 173.007 304.727 184.349 303.864 195.759C303 207.17 298.077 217.893 289.985 225.985C281.893 234.077 271.17 239 259.759 239.864C248.349 240.727 237.007 237.472 227.79 230.69C222.542 250.026 223.489 270.521 230.499 289.29C237.509 308.059 250.228 324.158 266.866 335.32C283.504 346.481 303.224 352.145 323.25 351.512C343.275 350.879 362.598 343.983 378.499 331.793C394.399 319.603 406.077 302.734 411.888 283.56C417.699 264.386 417.351 243.872 410.893 224.906C404.435 205.94 392.191 189.476 375.886 177.833C359.581 166.19 340.035 159.953 320 160V160Z" fill="#414141"/>
</svg>
