<svg width="128" height="143" viewBox="0 0 128 143" fill="none" xmlns="http://www.w3.org/2000/svg">
<path fill-rule="evenodd" clip-rule="evenodd" d="M68.5713 0.336975L123.314 16.4007C124.662 16.8428 125.837 17.6856 126.676 18.8126C127.516 19.9395 127.978 21.2947 128 22.6912V82.5648C128 90.6529 124.686 98.8531 118.171 107.054C113.257 113.232 106.286 119.523 97.7141 125.701C88.4765 132.139 78.6874 137.777 68.457 142.551C67.9129 142.77 67.3309 142.885 66.7427 142.888H65.5998L64.9142 142.663L64.6675 142.541C62.0346 141.238 42.5061 131.569 34.5141 129.632C23.1469 126.839 11.8341 133.693 5.43424 137.57C2.56858 139.306 0.68796 140.445 0.228427 139.855C-1.25729 137.945 6.17124 129.183 8.68552 126.263C10.0666 124.589 11.2853 123.244 12.3262 122.096C14.9891 119.157 16.489 117.501 16.5713 114.917C16.6568 112.227 15.4622 110.921 13.4665 108.739C12.7954 108.005 12.0338 107.172 11.1999 106.155C7.88553 102.111 4.57126 95.1461 5.37125 82.6773V22.6912C5.39292 21.2947 5.85544 19.9395 6.6948 18.8126C7.53421 17.6856 8.70914 16.8428 10.057 16.4007L64.7998 0.336975C66.0339 0.0022583 67.3372 0.0022583 68.5713 0.336975ZM66.9717 20.22L108 32.3521C108.615 32.5391 109.155 32.9105 109.544 33.4141C109.933 33.9175 110.153 34.5281 110.172 35.1602V79.5318C110.172 85.2608 107.772 91.2147 103.086 97.056C98.8752 102.167 93.9503 106.668 88.4574 110.423C81.8214 115.063 74.785 119.122 67.4287 122.555C67.0349 122.731 66.6031 122.808 66.1717 122.78C65.7394 122.824 65.3033 122.746 64.9145 122.555C57.5434 119.15 50.5045 115.089 43.886 110.423C38.3602 106.667 33.3976 102.167 29.143 97.056C24.4573 91.2147 22.0573 85.2608 22.0573 79.5318V35.1602C22.0762 34.5281 22.2956 33.9175 22.685 33.4141C23.0744 32.9105 23.6141 32.5391 24.2288 32.3521L65.2574 20.22H66.9717Z" fill="white"/>
</svg>
